<svg id="visual" viewBox="0 0 900 600" width="900" height="600" xmlns="http://www.w3.org/2000/svg" xmlns:xlink="http://www.w3.org/1999/xlink" version="1.1"><rect x="0" y="0" width="900" height="600" fill="#fff"></rect><path d="M0 482L18.8 478.3C37.7 474.7 75.3 467.3 112.8 468.3C150.3 469.3 187.7 478.7 225.2 478.3C262.7 478 300.3 468 337.8 461.5C375.3 455 412.7 452 450.2 458.8C487.7 465.7 525.3 482.3 562.8 493.2C600.3 504 637.7 509 675.2 501.5C712.7 494 750.3 474 787.8 468.8C825.3 463.7 862.7 473.3 881.3 478.2L900 483L900 601L881.3 601C862.7 601 825.3 601 787.8 601C750.3 601 712.7 601 675.2 601C637.7 601 600.3 601 562.8 601C525.3 601 487.7 601 450.2 601C412.7 601 375.3 601 337.8 601C300.3 601 262.7 601 225.2 601C187.7 601 150.3 601 112.8 601C75.3 601 37.7 601 18.8 601L0 601Z" fill="#9b51e0" stroke-linecap="round" stroke-linejoin="miter"></path></svg>